<?xml version="1.0" encoding="UTF-8"?>
<svg xmlns="http://www.w3.org/2000/svg" xmlns:xlink="http://www.w3.org/1999/xlink" width="51px" height="50px" viewBox="0 0 50 50" version="1.1">
<defs>
<clipPath id="clip1">
  <path d="M 21 21 L 29 21 L 29 29 L 21 29 Z M 21 21 "/>
</clipPath>
<clipPath id="clip2">
  <path d="M 13.726562 0 L 49.625 13.429688 L 36.363281 49.777344 L 0.464844 36.347656 Z M 13.726562 0 "/>
</clipPath>
<clipPath id="clip3">
  <path d="M 8 7 L 43 7 L 43 43 L 8 43 Z M 8 7 "/>
</clipPath>
<clipPath id="clip4">
  <path d="M 13.726562 0 L 49.625 13.429688 L 36.363281 49.777344 L 0.464844 36.347656 Z M 13.726562 0 "/>
</clipPath>
</defs>
<g id="surface1">
<g clip-path="url(#clip1)" clip-rule="nonzero">
<g clip-path="url(#clip2)" clip-rule="nonzero">
<path style=" stroke:none;fill-rule:nonzero;fill:rgb(32.549021%,75.686276%,87.058824%);fill-opacity:1;" d="M 28.058594 25.984375 C 28.65625 24.355469 27.792969 22.53125 26.132812 21.910156 C 24.472656 21.289062 22.644531 22.109375 22.050781 23.738281 C 21.457031 25.367188 22.320312 27.191406 23.980469 27.8125 C 25.636719 28.433594 27.464844 27.617188 28.058594 25.984375 Z M 28.058594 25.984375 "/>
</g>
</g>
<g clip-path="url(#clip3)" clip-rule="nonzero">
<g clip-path="url(#clip4)" clip-rule="nonzero">
<path style=" stroke:none;fill-rule:evenodd;fill:rgb(32.549021%,75.686276%,87.058824%);fill-opacity:1;" d="M 36.8125 23.035156 C 38.371094 20.742188 40.882812 16.34375 38.652344 13.699219 C 36.433594 11.070312 31.679688 12.742188 29.09375 13.847656 C 27.832031 11.324219 25.191406 6.898438 21.800781 7.445312 C 18.421875 7.988281 17.597656 12.929688 17.316406 15.71875 C 14.441406 15.46875 9.394531 15.363281 8.226562 18.566406 C 7.0625 21.761719 10.910156 25.136719 13.238281 26.835938 C 11.652344 29.152344 9.171875 33.398438 11.394531 36.03125 C 13.632812 38.683594 18.441406 37.128906 21.054688 36.011719 C 22.324219 38.570312 24.847656 42.890625 28.226562 42.347656 C 31.617188 41.800781 32.578125 36.894531 32.863281 34.089844 C 35.644531 34.304688 40.730469 34.3125 41.882812 31.15625 C 43.039062 27.984375 39.117188 24.722656 36.8125 23.035156 Z M 32.964844 32.585938 C 33.023438 31.101562 32.960938 29.480469 32.789062 27.761719 C 33.980469 26.59375 35.039062 25.410156 35.933594 24.25 C 37.621094 25.492188 41.304688 28.261719 40.445312 30.617188 C 39.578125 32.996094 35.160156 32.75 32.964844 32.585938 Z M 27.953125 40.855469 C 25.429688 41.261719 23.363281 37.257812 22.425781 35.375 C 23.746094 34.710938 25.125 33.882812 26.53125 32.914062 C 28.210938 33.378906 29.832031 33.722656 31.339844 33.929688 C 31.136719 35.910156 30.484375 40.449219 27.953125 40.855469 Z M 12.558594 35.078125 C 10.902344 33.113281 13.339844 29.410156 14.507812 27.703125 C 15.773438 28.515625 17.222656 29.304688 18.804688 30.042969 C 19.269531 31.679688 19.8125 33.226562 20.417969 34.628906 C 18.78125 35.328125 14.222656 37.050781 12.558594 35.078125 Z M 9.664062 19.105469 C 10.535156 16.714844 15.085938 17.035156 17.207031 17.222656 C 17.136719 18.726562 17.175781 20.335938 17.324219 22.007812 C 16.125 23.199219 15.042969 24.417969 14.121094 25.621094 C 12.472656 24.417969 8.792969 21.492188 9.664062 19.105469 Z M 22.074219 8.9375 C 24.605469 8.527344 26.800781 12.648438 27.71875 14.476562 C 26.363281 15.140625 24.96875 15.953125 23.578125 16.886719 C 21.945312 16.4375 20.34375 16.105469 18.839844 15.890625 C 19.066406 13.640625 19.542969 9.34375 22.074219 8.9375 Z M 31.792969 21.703125 C 32.816406 22.238281 33.78125 22.800781 34.667969 23.378906 C 34.042969 24.179688 33.335938 25 32.550781 25.820312 C 32.355469 24.4375 32.101562 23.066406 31.792969 21.703125 Z M 28.355469 15.863281 C 28.761719 16.816406 29.140625 17.851562 29.480469 18.949219 C 28.179688 18.394531 26.851562 17.898438 25.503906 17.460938 C 26.464844 16.859375 27.421875 16.324219 28.355469 15.863281 Z M 18.757812 20.65625 C 18.691406 19.527344 18.683594 18.433594 18.730469 17.398438 C 19.765625 17.546875 20.855469 17.757812 21.96875 18.027344 C 20.855469 18.851562 19.785156 19.730469 18.757812 20.65625 Z M 18.3125 28.136719 C 17.257812 27.601562 16.277344 27.050781 15.390625 26.484375 C 16.03125 25.65625 16.753906 24.8125 17.546875 23.976562 C 17.734375 25.375 17.992188 26.761719 18.3125 28.136719 Z M 21.789062 33.988281 C 21.371094 33.011719 20.980469 31.957031 20.632812 30.851562 C 21.945312 31.402344 23.28125 31.898438 24.636719 32.339844 C 23.660156 32.96875 22.707031 33.523438 21.789062 33.988281 Z M 31.375 29.09375 C 31.457031 30.265625 31.480469 31.382812 31.441406 32.421875 C 30.386719 32.273438 29.269531 32.058594 28.113281 31.773438 C 29.238281 30.925781 30.328125 30.03125 31.375 29.09375 Z M 26.222656 31.261719 C 24.132812 30.640625 22.082031 29.871094 20.089844 28.980469 C 19.535156 26.882812 19.144531 24.75 18.914062 22.601562 C 20.460938 21.125 22.121094 19.761719 23.878906 18.535156 C 25.976562 19.148438 28.03125 19.914062 30.015625 20.832031 C 30.554688 22.917969 30.941406 25.039062 31.191406 27.171875 C 29.636719 28.648438 27.96875 30.011719 26.222656 31.261719 Z M 37.488281 14.65625 C 39.152344 16.628906 36.679688 20.5 35.550781 22.160156 C 34.269531 21.324219 32.839844 20.519531 31.304688 19.78125 C 30.851562 18.140625 30.324219 16.605469 29.734375 15.230469 C 31.628906 14.421875 35.839844 12.703125 37.488281 14.65625 Z M 37.488281 14.65625 "/>
</g>
</g>
</g>
</svg>
