<?xml version="1.0" encoding="UTF-8"?>
<svg xmlns="http://www.w3.org/2000/svg" xmlns:xlink="http://www.w3.org/1999/xlink" width="65px" height="62px" viewBox="0 0 65 62" version="1.1">
<defs>
<clipPath id="clip1">
  <path d="M 28.304688 26.425781 L 36.695312 26.425781 L 36.695312 34.808594 L 28.304688 34.808594 Z M 28.304688 26.425781 "/>
</clipPath>
<clipPath id="clip2">
  <path d="M 18.097656 0 L 63.964844 16.648438 L 47.019531 61.722656 L 1.152344 45.070312 Z M 18.097656 0 "/>
</clipPath>
<clipPath id="clip3">
  <path d="M 10.648438 9.144531 L 54.351562 9.144531 L 54.351562 52.855469 L 10.648438 52.855469 Z M 10.648438 9.144531 "/>
</clipPath>
<clipPath id="clip4">
  <path d="M 18.097656 0 L 63.964844 16.648438 L 47.019531 61.722656 L 1.152344 45.070312 Z M 18.097656 0 "/>
</clipPath>
</defs>
<g id="surface1">
<g clip-path="url(#clip1)" clip-rule="nonzero">
<g clip-path="url(#clip2)" clip-rule="nonzero">
<path style=" stroke:none;fill-rule:nonzero;fill:rgb(32.549021%,75.686276%,87.058824%);fill-opacity:1;" d="M 36.410156 32.222656 C 37.171875 30.203125 36.066406 27.9375 33.945312 27.175781 C 31.824219 26.398438 29.492188 27.417969 28.730469 29.4375 C 27.96875 31.457031 29.078125 33.71875 31.195312 34.488281 C 33.316406 35.257812 35.652344 34.242188 36.410156 32.222656 Z M 36.410156 32.222656 "/>
</g>
</g>
<g clip-path="url(#clip3)" clip-rule="nonzero">
<g clip-path="url(#clip4)" clip-rule="nonzero">
<path style=" stroke:none;fill-rule:evenodd;fill:rgb(32.549021%,75.686276%,87.058824%);fill-opacity:1;" d="M 47.59375 28.566406 C 49.585938 25.722656 52.796875 20.269531 49.941406 16.988281 C 47.105469 13.726562 41.035156 15.804688 37.726562 17.171875 C 36.121094 14.042969 32.746094 8.554688 28.414062 9.230469 C 24.097656 9.90625 23.042969 16.035156 22.683594 19.488281 C 19.015625 19.1875 12.5625 19.054688 11.070312 23.019531 C 9.582031 26.980469 14.496094 31.171875 17.46875 33.277344 C 15.449219 36.148438 12.277344 41.414062 15.117188 44.679688 C 17.972656 47.96875 24.121094 46.039062 27.460938 44.65625 C 29.082031 47.824219 32.304688 53.183594 36.625 52.507812 C 40.953125 51.832031 42.175781 45.753906 42.546875 42.273438 C 46.097656 42.539062 52.597656 42.546875 54.070312 38.636719 C 55.546875 34.699219 50.535156 30.65625 47.59375 28.566406 Z M 42.675781 40.40625 C 42.753906 38.570312 42.671875 36.558594 42.453125 34.425781 C 43.976562 32.976562 45.328125 31.507812 46.46875 30.078125 C 48.621094 31.613281 53.328125 35.046875 52.234375 37.964844 C 51.121094 40.917969 45.476562 40.613281 42.675781 40.40625 Z M 36.273438 50.664062 C 33.054688 51.164062 30.410156 46.199219 29.210938 43.863281 C 30.898438 43.042969 32.664062 42.011719 34.457031 40.8125 C 36.601562 41.394531 38.671875 41.820312 40.605469 42.074219 C 40.34375 44.535156 39.507812 50.15625 36.273438 50.664062 Z M 16.605469 43.496094 C 14.488281 41.0625 17.601562 36.46875 19.09375 34.351562 C 20.714844 35.363281 22.5625 36.335938 24.582031 37.25 C 25.175781 39.285156 25.875 41.199219 26.644531 42.9375 C 24.554688 43.808594 18.730469 45.945312 16.605469 43.496094 Z M 12.910156 23.683594 C 14.023438 20.730469 19.832031 21.128906 22.542969 21.359375 C 22.457031 23.222656 22.507812 25.214844 22.695312 27.292969 C 21.15625 28.765625 19.78125 30.277344 18.601562 31.773438 C 16.496094 30.277344 11.792969 26.652344 12.910156 23.683594 Z M 28.761719 11.078125 C 31.996094 10.578125 34.800781 15.683594 35.972656 17.949219 C 34.242188 18.777344 32.460938 19.785156 30.683594 20.9375 C 28.59375 20.390625 26.550781 19.96875 24.628906 19.703125 C 24.917969 16.914062 25.53125 11.585938 28.761719 11.078125 Z M 41.179688 26.910156 C 42.484375 27.574219 43.722656 28.273438 44.851562 28.988281 C 44.058594 29.980469 43.152344 31 42.148438 32.019531 C 41.894531 30.300781 41.574219 28.597656 41.179688 26.910156 Z M 36.792969 19.671875 C 37.308594 20.851562 37.785156 22.136719 38.226562 23.5 C 36.5625 22.8125 34.863281 22.195312 33.144531 21.652344 C 34.375 20.902344 35.597656 20.242188 36.792969 19.671875 Z M 24.523438 25.613281 C 24.441406 24.210938 24.433594 22.859375 24.488281 21.574219 C 25.816406 21.757812 27.203125 22.019531 28.625 22.351562 C 27.207031 23.378906 25.835938 24.464844 24.523438 25.613281 Z M 23.957031 34.886719 C 22.605469 34.226562 21.351562 33.539062 20.226562 32.84375 C 21.046875 31.808594 21.96875 30.765625 22.980469 29.730469 C 23.21875 31.464844 23.546875 33.183594 23.957031 34.886719 Z M 28.398438 42.144531 C 27.863281 40.933594 27.363281 39.632812 26.917969 38.253906 C 28.601562 38.933594 30.300781 39.554688 32.03125 40.101562 C 30.789062 40.878906 29.570312 41.570312 28.398438 42.144531 Z M 40.640625 36.074219 C 40.746094 37.53125 40.777344 38.917969 40.730469 40.203125 C 39.378906 40.023438 37.953125 39.753906 36.476562 39.402344 C 37.910156 38.34375 39.304688 37.238281 40.640625 36.074219 Z M 34.0625 38.761719 C 31.394531 37.996094 28.769531 37.042969 26.226562 35.929688 C 25.523438 33.339844 25.019531 30.691406 24.726562 28.027344 C 26.699219 26.195312 28.824219 24.511719 31.066406 22.984375 C 33.75 23.742188 36.371094 24.695312 38.910156 25.832031 C 39.597656 28.414062 40.09375 31.054688 40.410156 33.691406 C 38.421875 35.527344 36.296875 37.214844 34.0625 38.761719 Z M 48.457031 18.171875 C 50.582031 20.621094 47.417969 25.417969 45.976562 27.480469 C 44.34375 26.445312 42.515625 25.445312 40.554688 24.527344 C 39.976562 22.496094 39.300781 20.59375 38.542969 18.886719 C 40.96875 17.882812 46.347656 15.75 48.457031 18.171875 Z M 48.457031 18.171875 "/>
</g>
</g>
</g>
</svg>
