<?xml version="1.0" encoding="UTF-8"?>
<svg xmlns="http://www.w3.org/2000/svg" xmlns:xlink="http://www.w3.org/1999/xlink" width="60px" height="37px" viewBox="0 0 60 37" version="1.1">
<g id="surface1">
<path style=" stroke:none;fill-rule:nonzero;fill:rgb(26.666668%,65.882355%,70.19608%);fill-opacity:1;" d="M 15 12.332031 C 17 4.109375 22 0 30 0 C 42 0 43.5 9.25 49.5 10.792969 C 53.5 11.820312 57 10.277344 60 6.167969 C 58 14.390625 53 18.5 45 18.5 C 33 18.5 31.5 9.25 25.5 7.707031 C 21.5 6.679688 18 8.222656 15 12.332031 Z M 0 30.832031 C 2 22.609375 7 18.5 15 18.5 C 27 18.5 28.5 27.75 34.5 29.292969 C 38.5 30.320312 42 28.777344 45 24.667969 C 43 32.890625 38 37 30 37 C 18 37 16.5 27.75 10.5 26.207031 C 6.5 25.179688 3 26.722656 0 30.832031 Z M 0 30.832031 "/>
</g>
</svg>
