<?xml version="1.0" encoding="UTF-8"?>
<svg xmlns="http://www.w3.org/2000/svg" xmlns:xlink="http://www.w3.org/1999/xlink" width="54px" height="37px" viewBox="0 0 54 37" version="1.1">
<g id="surface1">
<path style=" stroke:none;fill-rule:nonzero;fill:rgb(26.666668%,65.882355%,70.19608%);fill-opacity:1;" d="M 13.75 12.332031 C 15.515625 4.109375 19.933594 0 27 0 C 37.601562 0 38.925781 9.25 44.226562 10.792969 C 47.757812 11.820312 50.851562 10.277344 53.5 6.167969 C 51.734375 14.390625 47.316406 18.5 40.25 18.5 C 29.648438 18.5 28.324219 9.25 23.023438 7.707031 C 19.492188 6.679688 16.398438 8.222656 13.75 12.332031 Z M 0.5 30.832031 C 2.265625 22.609375 6.683594 18.5 13.75 18.5 C 24.351562 18.5 25.675781 27.75 30.976562 29.292969 C 34.507812 30.320312 37.601562 28.777344 40.25 24.667969 C 38.484375 32.890625 34.066406 37 27 37 C 16.398438 37 15.074219 27.75 9.773438 26.207031 C 6.242188 25.179688 3.148438 26.722656 0.5 30.832031 Z M 0.5 30.832031 "/>
</g>
</svg>
